/* XPM */
static char * cursor_xpm[] = {
"30 48 53 1",
" 	c None",
".	c #FF00FF",
"+	c #800080",
"@	c #000040",
"#	c #400040",
"$	c #000000",
"%	c #400000",
"&	c #804080",
"*	c #400080",
"=	c #800000",
"-	c #800040",
";	c #BF0000",
">	c #FF0040",
",	c #FF0000",
"'	c #BF4040",
")	c #BF4000",
"!	c #BF0040",
"~	c #FF8080",
"{	c #FFBF80",
"]	c #FFBFBF",
"^	c #FF80BF",
"/	c #FFFFFF",
"(	c #FFFFBF",
"_	c #BF8080",
":	c #FFBFFF",
"<	c #BF4080",
"[	c #BFBFBF",
"}	c #FF4040",
"|	c #BF8040",
"1	c #404040",
"2	c #BF40BF",
"3	c #404000",
"4	c #BF00BF",
"5	c #804040",
"6	c #804000",
"7	c #BF00FF",
"8	c #004040",
"9	c #808080",
"0	c #80BFBF",
"a	c #8080BF",
"b	c #408040",
"c	c #404080",
"d	c #408080",
"e	c #BFFFFF",
"f	c #80BF80",
"g	c #4080BF",
"h	c #000080",
"i	c #004080",
"j	c #0000BF",
"k	c #0040BF",
"l	c #4040BF",
"m	c #4080FF",
"n	c #BF80BF",
".........+@#$%%%&.............",
".......*#=====-=%%............",
".....#%%=;;;;;;;;=-...........",
"....%===;;;;;;;;;;==..........",
"...%====;;;>,;;');)=%.........",
"..%==;==;;;!!~{]]';;=%........",
".$%=;=;=;;'~^]//(]'!!=%.......",
".#=;;=;;;;_://////]<;;=-......",
"*%=;;=;;;)~//]^]_[/]';;;+.....",
"@%;;;;;;;']/]''!'_]]_',;%.....",
"+%=;==;;,}~]';;;;;']]';;=-....",
"#%-;===;,;'';;,,,,;~]_;;)%+...",
"+%-;;=;;,,,;;,,,,,;'](^';=-...",
".%=;;=;;;;,,,;,,,,;;|(]<;;=+..",
".1%=;====;;;;;;,,,,;']]_};%+..",
".2%==%====;;;;;,,,,,;|(]_;=-..",
"...3%===;;;;;;;;;,,,;'~]{''%-.",
"...4%==;;,>!!;;;;,,,,;){(~==-.",
"...@-=;;,;}~_!;;;;,,,,;']_56-.",
"...#-=;,,;}]]~';;;,,,,,;~~5=-.",
"...$==;,,,;}]]_;;;;,,,,,}^5=#.",
"...1%=;;,,;;']]~;;;>,,,,}~'=-.",
"....3%=;;,,,;']]';;;,,,;)~;'=.",
"....&%%==;,;,;'~~},,,,;;}';=#.",
".....1%===;;,;;'~>,,,,;'];;=%.",
"......1%==;;;,;)~';};;~~')=%..",
".......#%-;;;;;){''};;};;;%...",
".......4$==;;;;;~;~';;;,;;%...",
"........71==;,,,,,,,,,,,;=+...",
".........8%=;;,,,;,,;,,;=-....",
".........8%=;;;;;;;;;;;=-.....",
".........1%-=;==;=;;=;=#......",
".........8%=555__<__5%-.......",
".......888$%%1$3[/[_91+.......",
"......@90a919[[19/[99b+.......",
"....&@cad1111[/[9/e9db+.......",
"...81&[/9[[[919_]/[dfd#.......",
"..8$1191(1919[[&1/[0g1+.......",
"8891f99[/ea[[919[[0cgd1.......",
"&dbfbfbdccc@1cchhihhhh1.......",
".#+#.+&18@hhhhjjkljjjh@#......",
".........@hjjjjjklkjjh@#......",
".........@hjjjjjlmkjjhh#......",
".........$@hjjjjjkiihh@$......",
".........#@@hhh*c*h@@@$+......",
"..........$$$@#&n91@##+.......",
".............#%5:_3-..........",
"..............-%%-#..........."};
